<svg width="45" height="45" viewBox="0 0 45 45" fill="none" xmlns="http://www.w3.org/2000/svg">
<path fill-rule="evenodd" clip-rule="evenodd" d="M22 10C32.5 11 38.5 18 38 39H15C15 30 25 32.5 23 18" fill="#102027"/>
<path d="M22 10C32.5 11 38.5 18 38 39H15C15 30 25 32.5 23 18" stroke="white" stroke-width="1.5" stroke-linecap="round" stroke-linejoin="round"/>
<path fill-rule="evenodd" clip-rule="evenodd" d="M24 18C24.38 20.91 18.45 25.37 16 27C13 29 13.18 31.34 11 31C9.958 30.06 12.41 27.96 11 28C10 28 11.19 29.23 10 30C9 30 5.997 31 6 26C6 24 12 14 12 14C12 14 13.89 12.1 14 10.5C13.27 9.506 13.5 8.5 13.5 7.5C14.5 6.5 16.5 10 16.5 10H18.5C18.5 10 19.28 8.008 21 7C22 7 22 10 22 10" fill="#102027"/>
<path d="M24 18C24.38 20.91 18.45 25.37 16 27C13 29 13.18 31.34 11 31C9.958 30.06 12.41 27.96 11 28C10 28 11.19 29.23 10 30C9 30 5.997 31 6 26C6 24 12 14 12 14C12 14 13.89 12.1 14 10.5C13.27 9.506 13.5 8.5 13.5 7.5C14.5 6.5 16.5 10 16.5 10H18.5C18.5 10 19.28 8.008 21 7C22 7 22 10 22 10" stroke="white" stroke-width="1.5" stroke-linecap="round" stroke-linejoin="round"/>
<path fill-rule="evenodd" clip-rule="evenodd" d="M9.5 25.5C9.5 25.6326 9.44732 25.7598 9.35355 25.8536C9.25979 25.9473 9.13261 26 9 26C8.86739 26 8.74021 25.9473 8.64645 25.8536C8.55268 25.7598 8.5 25.6326 8.5 25.5C8.5 25.3674 8.55268 25.2402 8.64645 25.1464C8.74021 25.0527 8.86739 25 9 25C9.13261 25 9.25979 25.0527 9.35355 25.1464C9.44732 25.2402 9.5 25.3674 9.5 25.5Z" fill="white" stroke="white" stroke-width="1.5" stroke-linecap="round" stroke-linejoin="round"/>
<path fill-rule="evenodd" clip-rule="evenodd" d="M14.9329 15.75C14.734 16.0946 14.4976 16.3986 14.2757 16.5954C14.0539 16.7921 13.8647 16.8654 13.7499 16.799C13.6351 16.7327 13.6039 16.5323 13.6634 16.2418C13.7228 15.9513 13.868 15.5946 14.0669 15.25C14.2658 14.9055 14.5022 14.6015 14.724 14.4047C14.9459 14.208 15.1351 14.1347 15.2499 14.201C15.3647 14.2674 15.3959 14.4678 15.3364 14.7583C15.277 15.0488 15.1318 15.4055 14.9329 15.75Z" fill="white" stroke="white" stroke-width="1.5" stroke-linecap="round" stroke-linejoin="round"/>
<path d="M24.7438 11.5211L24.7272 11.5162L24.8945 10.9771L24.9639 10.9907L24.9742 10.9927L24.9845 10.9943C28.2152 11.4884 31.5057 13.5318 33.8079 17.8934C36.1191 22.2721 37.4972 28.9576 37.0013 38.9627L36.9976 39H35.7507C36.2493 29.0449 35.2534 22.8924 32.9422 18.5165C31.792 16.3387 30.5634 14.8423 29.1981 13.7606C27.8335 12.6794 26.3589 12.0338 24.7514 11.5235L24.7514 11.5234L24.7438 11.5211Z" fill="white" stroke="white"/>
</svg>
