<svg width="640" height="640" viewBox="0 0 640 640" fill="none" xmlns="http://www.w3.org/2000/svg">
<path d="M160 0H240V80H160V0Z" fill="#37474F"/>
<path d="M0 0H80V80H0V0Z" fill="#37474F"/>
<path d="M80 0H160V80H80V0Z" fill="#E0E0E0"/>
<path d="M240 0H320V80H240V0Z" fill="#E0E0E0"/>
<path d="M400 0H480V80H400V0Z" fill="#E0E0E0"/>
<path d="M560 0H640V80H560V0Z" fill="#E0E0E0"/>
<path d="M480 80H560V160H480V80Z" fill="#E0E0E0"/>
<path d="M320 80H400V160H320V80Z" fill="#E0E0E0"/>
<path d="M160 80H240V160H160V80Z" fill="#E0E0E0"/>
<path d="M0 80H80V160H0V80Z" fill="#E0E0E0"/>
<path d="M320 0H400V80H320V0Z" fill="#37474F"/>
<path d="M480 0H560V80H480V0Z" fill="#37474F"/>
<path d="M560 80H640V160H560V80Z" fill="#37474F"/>
<path d="M400 80H480V160H400V80Z" fill="#37474F"/>
<path d="M240 80H320V160H240V80Z" fill="#37474F"/>
<path d="M80 80H160V160H80V80Z" fill="#37474F"/>
<path d="M160 160H240V240H160V160Z" fill="#37474F"/>
<path d="M0 160H80V240H0V160Z" fill="#37474F"/>
<path d="M80 160H160V240H80V160Z" fill="#E0E0E0"/>
<path d="M240 160H320V240H240V160Z" fill="#E0E0E0"/>
<path d="M400 160H480V240H400V160Z" fill="#E0E0E0"/>
<path d="M560 160H640V240H560V160Z" fill="#E0E0E0"/>
<path d="M480 240H560V320H480V240Z" fill="#E0E0E0"/>
<path d="M320 240H400V320H320V240Z" fill="#E0E0E0"/>
<path d="M160 240H240V320H160V240Z" fill="#E0E0E0"/>
<path d="M0 240H80V320H0V240Z" fill="#E0E0E0"/>
<path d="M320 160H400V240H320V160Z" fill="#37474F"/>
<path d="M480 160H560V240H480V160Z" fill="#37474F"/>
<path d="M560 240H640V320H560V240Z" fill="#37474F"/>
<path d="M400 240H480V320H400V240Z" fill="#37474F"/>
<path d="M240 240H320V320H240V240Z" fill="#37474F"/>
<path d="M80 240H160V320H80V240Z" fill="#37474F"/>
<path d="M160 320H240V400H160V320Z" fill="#37474F"/>
<path d="M0 320H80V400H0V320Z" fill="#37474F"/>
<path d="M80 320H160V400H80V320Z" fill="#E0E0E0"/>
<path d="M240 320H320V400H240V320Z" fill="#E0E0E0"/>
<path d="M400 320H480V400H400V320Z" fill="#E0E0E0"/>
<path d="M560 320H640V400H560V320Z" fill="#E0E0E0"/>
<path d="M480 400H560V480H480V400Z" fill="#E0E0E0"/>
<path d="M320 400H400V480H320V400Z" fill="#E0E0E0"/>
<path d="M160 400H240V480H160V400Z" fill="#E0E0E0"/>
<path d="M0 400H80V480H0V400Z" fill="#E0E0E0"/>
<path d="M320 320H400V400H320V320Z" fill="#37474F"/>
<path d="M480 320H560V400H480V320Z" fill="#37474F"/>
<path d="M560 400H640V480H560V400Z" fill="#37474F"/>
<path d="M400 400H480V480H400V400Z" fill="#37474F"/>
<path d="M240 400H320V480H240V400Z" fill="#37474F"/>
<path d="M80 400H160V480H80V400Z" fill="#37474F"/>
<path d="M160 480H240V560H160V480Z" fill="#37474F"/>
<path d="M0 480H80V560H0V480Z" fill="#37474F"/>
<path d="M80 480H160V560H80V480Z" fill="#E0E0E0"/>
<path d="M240 480H320V560H240V480Z" fill="#E0E0E0"/>
<path d="M400 480H480V560H400V480Z" fill="#E0E0E0"/>
<path d="M560 480H640V560H560V480Z" fill="#E0E0E0"/>
<path d="M480 560H560V640H480V560Z" fill="#E0E0E0"/>
<path d="M320 560H400V640H320V560Z" fill="#E0E0E0"/>
<path d="M160 560H240V640H160V560Z" fill="#E0E0E0"/>
<path d="M0 560H80V640H0V560Z" fill="#E0E0E0"/>
<path d="M320 480H400V560H320V480Z" fill="#37474F"/>
<path d="M480 480H560V560H480V480Z" fill="#37474F"/>
<path d="M560 560H640V640H560V560Z" fill="#37474F"/>
<path d="M400 560H480V640H400V560Z" fill="#37474F"/>
<path d="M240 560H320V640H240V560Z" fill="#37474F"/>
<path d="M80 560H160V640H80V560Z" fill="#37474F"/>
</svg>
